# Blender v3.1.2 OBJ File: 'Office.blend'
# www.blender.org
o Door_Plane.002
v -1.468618 0.300000 -5.217401
v 1.995483 0.300000 -7.217401
v -1.468618 7.000000 -5.217401
v 1.995483 7.000000 -7.217401
v -1.543618 0.300000 -5.347304
v 1.920483 0.300000 -7.347304
v -1.543618 7.000000 -5.347304
v 1.920483 7.000000 -7.347304
vt 1.000000 0.000000
vt 0.000000 1.000000
vt 0.000000 0.000000
vt 0.000000 1.000000
vt 1.000000 0.000000
vt 0.000000 0.000000
vt 1.000000 1.000000
vt 1.000000 1.000000
vn 0.5000 0.0000 0.8660
vn -0.5000 0.0000 -0.8660
vn -0.8660 0.0000 0.5000
vn 0.0000 -1.0000 0.0000
vn 0.8660 0.0000 -0.5000
vn 0.0000 1.0000 0.0000
s off
f 2/1/1 3/2/1 1/3/1
f 7/4/2 6/5/2 5/6/2
f 3/2/3 5/6/3 1/3/3
f 1/3/4 6/5/4 2/1/4
f 2/1/5 8/7/5 4/8/5
f 4/8/6 7/4/6 3/2/6
f 2/1/1 4/8/1 3/2/1
f 7/4/2 8/7/2 6/5/2
f 3/2/3 7/4/3 5/6/3
f 1/3/4 5/6/4 6/5/4
f 2/1/5 6/5/5 8/7/5
f 4/8/6 8/7/6 7/4/6
