# Blender v3.0.1 OBJ File: ''
# www.blender.org
o Room
v 1.000000 1.000000 -1.000000
v -1.000000 1.000000 -1.000000
v -1.000000 1.000000 1.000000
v 1.000000 1.000000 1.000000
v 1.000000 -1.000000 1.000000
v 1.000000 1.000000 1.000000
v -1.000000 1.000000 1.000000
v -1.000000 -1.000000 1.000000
v -1.000000 -1.000000 1.000000
v -1.000000 1.000000 1.000000
v -1.000000 1.000000 -1.000000
v -1.000000 -1.000000 -1.000000
v -1.000000 -1.000000 -1.000000
v 1.000000 -1.000000 -1.000000
v 1.000000 -1.000000 1.000000
v -1.000000 -1.000000 1.000000
v -1.000000 -1.000000 -1.000000
v -1.000000 1.000000 -1.000000
v 1.000000 1.000000 -1.000000
v 1.000000 -1.000000 -1.000000
v 1.000000 0.992929 -0.992929
v 1.000000 0.992929 0.992929
v -0.994227 0.994227 0.994227
v -0.994227 0.994227 -0.994227
v 1.000000 -0.992929 0.992929
v -0.994227 -0.994227 0.994227
v -0.994227 0.994227 0.994227
v 1.000000 0.992929 0.992929
v -0.994227 -0.994227 0.994227
v -0.994227 -0.994227 -0.994227
v -0.994227 0.994227 -0.994227
v -0.994227 0.994227 0.994227
v -0.994227 -0.994227 -0.994227
v -0.994227 -0.994227 0.994227
v 1.000000 -0.992929 0.992929
v 1.000000 -0.992929 -0.992929
v -0.994227 -0.994227 -0.994227
v 1.000000 -0.992929 -0.992929
v 1.000000 0.992929 -0.992929
v -0.994227 0.994227 -0.994227
v 1.000000 -1.000000 -1.000000
v 1.000000 1.000000 -1.000000
v 1.000000 0.992929 -0.992929
v 1.000000 -0.992929 -0.992929
v 1.000000 1.000000 1.000000
v 1.000000 -1.000000 1.000000
v 1.000000 -0.992929 0.992929
v 1.000000 0.992929 0.992929
vt 0.625000 0.500000
vt 0.875000 0.500000
vt 0.875000 0.750000
vt 0.625000 0.750000
vt 0.375000 0.750000
vt 0.625000 0.750000
vt 0.625000 1.000000
vt 0.375000 1.000000
vt 0.375000 0.000000
vt 0.625000 0.000000
vt 0.625000 0.250000
vt 0.375000 0.250000
vt 0.125000 0.500000
vt 0.375000 0.500000
vt 0.375000 0.750000
vt 0.125000 0.750000
vt 0.375000 0.250000
vt 0.625000 0.250000
vt 0.625000 0.500000
vt 0.375000 0.500000
vt 0.625000 0.500000
vt 0.625000 0.750000
vt 0.875000 0.750000
vt 0.875000 0.500000
vt 0.375000 0.750000
vt 0.375000 1.000000
vt 0.625000 1.000000
vt 0.625000 0.750000
vt 0.375000 0.000000
vt 0.375000 0.250000
vt 0.625000 0.250000
vt 0.625000 0.000000
vt 0.125000 0.500000
vt 0.125000 0.750000
vt 0.375000 0.750000
vt 0.375000 0.500000
vt 0.375000 0.250000
vt 0.375000 0.500000
vt 0.625000 0.500000
vt 0.625000 0.250000
vt 0.375000 0.500000
vt 0.625000 0.500000
vt 0.625000 0.500000
vt 0.375000 0.500000
vt 0.625000 0.750000
vt 0.375000 0.750000
vt 0.375000 0.750000
vt 0.625000 0.750000
vn 0.0000 1.0000 0.0000
vn 0.0000 0.0000 1.0000
vn -1.0000 0.0000 0.0000
vn 0.0000 -1.0000 0.0000
vn 0.0000 0.0000 -1.0000
vn -0.0007 -1.0000 0.0000
vn -0.0007 0.0000 -1.0000
vn 1.0000 0.0000 0.0000
vn -0.0007 1.0000 0.0000
vn -0.0007 0.0000 1.0000
s off
f 1/1/1 2/2/1 3/3/1 4/4/1
f 5/5/2 6/6/2 7/7/2 8/8/2
f 9/9/3 10/10/3 11/11/3 12/12/3
f 13/13/4 14/14/4 15/15/4 16/16/4
f 17/17/5 18/18/5 19/19/5 20/20/5
f 21/21/6 22/22/6 23/23/6 24/24/6
f 25/25/7 26/26/7 27/27/7 28/28/7
f 29/29/8 30/30/8 31/31/8 32/32/8
f 33/33/9 34/34/9 35/35/9 36/36/9
f 37/37/10 38/38/10 39/39/10 40/40/10
f 41/41/8 42/42/8 43/43/8 44/44/8
f 45/45/8 46/46/8 47/47/8 48/48/8
f 42/42/8 45/45/8 48/48/8 43/43/8
f 46/46/8 41/41/8 44/44/8 47/47/8
